<?xml version="1.0" encoding="UTF-8"?>
<svg width="10px" height="11px" viewBox="0 0 10 11" version="1.1" xmlns="http://www.w3.org/2000/svg" xmlns:xlink="http://www.w3.org/1999/xlink">
    <!-- Generator: Sketch 45.1 (43504) - http://www.bohemiancoding.com/sketch -->
    <title>Page 1</title>
    <desc>Created with Sketch.</desc>
    <defs>
        <polygon id="path-1" points="3.69614377e-20 0.000662510761 3.69614377e-20 10.0780909 9.99636364 10.0780909 9.99636364 0.000662510761 0 0.000662510761"></polygon>
    </defs>
    <g id="Page-1" stroke="none" stroke-width="1" fill="none" fill-rule="evenodd">
        <g id="Firma-Personalizada" transform="translate(-633.000000, -67.000000)">
            <g id="Page-1" transform="translate(633.000000, 67.000000)">
                <mask id="mask-2" fill="white">
                    <use xlink:href="#path-1"></use>
                </mask>
                <g id="Clip-2"></g>
                <path d="M7.62890909,6.62290909 C7.43890909,6.922 7.13890909,7.28654545 6.76345455,7.37836364 C6.09981818,7.53836364 5.08254545,7.382 3.81163636,6.19563636 C2.71163636,5.16836364 2.42072727,4.31381818 2.48981818,3.63563636 C2.52890909,3.25018182 2.84890909,2.90290909 3.11890909,2.67472727 C3.30345455,2.51836364 3.58527273,2.58381818 3.68254545,2.80381818 L4.08981818,3.72472727 C4.14345455,3.84563636 4.12618182,3.98745455 4.04618182,4.092 L3.83890909,4.35927273 C3.75163636,4.472 3.74072727,4.62654545 3.81163636,4.74927273 C4.05709091,5.17836364 5.02072727,6.03563636 5.47890909,6.22109091 C5.61072727,6.27381818 5.76163636,6.24109091 5.86254545,6.14018182 L6.098,5.89836364 C6.19163636,5.80381818 6.328,5.76836364 6.45618182,5.80472727 L7.42345455,6.082 C7.65527273,6.14927273 7.758,6.41927273 7.62890909,6.62290909 M7.76527273,7.76563636 C7.02618182,8.50472727 6.04345455,8.912 4.998,8.912 C4.38618182,8.912 3.79981818,8.77472727 3.25618182,8.50381818 L2.90527273,8.32836364 L1.358,8.69472727 L1.68345455,7.11381818 L1.51072727,6.77472727 C1.228,6.22290909 1.08436364,5.62381818 1.08436364,4.99836364 C1.08436364,3.95290909 1.49163636,2.96927273 2.23163636,2.23109091 C2.96345455,1.49836364 3.96254545,1.08472727 4.998,1.08472727 C6.04345455,1.08472727 7.02618182,1.49109091 7.76527273,2.23109091 C8.50527273,2.96927273 8.91163636,3.952 8.91163636,4.99836364 C8.91163636,6.03472727 8.498,7.03290909 7.76527273,7.76563636 M4.75436364,0.00654545455 C2.09254545,0.132 -0.00745454545,2.34927273 -0.000181818182,5.01290909 C0.00254545455,5.82563636 0.198,6.59109091 0.544363636,7.26836364 L0.0134545455,9.84381818 C-0.0147272727,9.98290909 0.109818182,10.1056364 0.248909091,10.0729091 L2.77254545,9.47472727 C3.42163636,9.79745455 4.14981818,9.98381818 4.92072727,9.99563636 C7.64163636,10.0374545 9.90981818,7.87745455 9.99436364,5.15836364 C10.0852727,2.24381818 7.67981818,-0.133454545 4.75436364,0.00654545455" id="Fill-1" fill="#FEFEFE" mask="url(#mask-2)"></path>
            </g>
        </g>
    </g>
</svg>